#!OML:ASF I:\Actors\actors\Patient Classification 1\Patient 1\Session 1\Subject1.ASF
:FULLY-SPECIFIED
:DEGREES
211
root -0.549017 17.5305 7.58444 7.55645 -3.83889 -8.73273
lowerback 5.68691 -2.99602 0.93457
upperback -4.02734 -3.80462 2.02899
thorax -7.32912 -1.86247 2.05771
lowerneck -10.9056 -8.57799 -6.89829
upperneck 35.6285 -13.5031 5.65065
head 15.1526 -6.11072 1.29571
rclavicle 3.6272e-014 -7.95139e-015
rhumerus -62.3557 22.5655 -96.8001
rradius 94.4203
rwrist -18.1476
rhand 8.56199 -65.4666
rfingers 7.12502
rthumb 33.7612 -267.697
lclavicle 3.6272e-014 -7.95139e-015
lhumerus -43.0696 -13.0076 96.427
lradius 46.6784
lwrist 6.1453
lhand -17.0128 -5.41683
lfingers 7.12502
lthumb 9.22303 24.3615
rfemur -4.56574 21.1309 26.8713
rtibia 6.45548
rfoot -11.0885 -17.5755
rtoes -2.36334
lfemur 7.63402 -40.3992 -14.8417
ltibia -4.123
lfoot -23.2766 52.0421
ltoes 14.6665
212
root -0.541162 17.5334 7.58932 7.59055 -3.85732 -8.61824
lowerback 6.04253 -2.9704 1.26796
upperback -4.52005 -3.73935 1.81421
thorax -8.10402 -1.84708 1.68601
lowerneck -10.3201 -8.82919 -7.01304
upperneck 35.7218 -13.8523 5.49256
head 15.0899 -6.31817 1.21488
rclavicle 2.47114e-014 -2.06736e-014
rhumerus -64.8246 22.8868 -97.298
rradius 98.3921
rwrist -19.5125
rhand 8.81382 -64.8882
rfingers 7.12502
rthumb 34.0004 -268.328
lclavicle 2.47114e-014 -2.06736e-014
lhumerus -44.4373 -14.8849 97.6065
lradius 48.8469
lwrist 6.66602
lhand -17.0473 -6.13462
lfingers 7.12502
lthumb 9.18974 23.6451
rfemur -4.63049 21.0818 26.6854
rtibia 6.50142
rfoot -11.1557 -17.5109
rtoes -2.31587
lfemur 7.41155 -39.9725 -14.827
ltibia -4.06921
lfoot -22.7368 51.7255
ltoes 14.1935
213
root -0.534455 17.5385 7.59566 7.49902 -3.6354 -8.49538
lowerback 6.15804 -3.08234 1.41478
upperback -4.70857 -3.87646 1.72896
thorax -8.39011 -1.92308 1.5496
lowerneck -10.0035 -9.01133 -7.17789
upperneck 35.6877 -14.0754 5.40047
head 15.0278 -6.46106 1.17985
rclavicle -4.57205e-015 -5.24792e-014
rhumerus -66.8099 23.2325 -97.1996
rradius 103.879
rwrist -22.4885
rhand 6.69527 -65.0161
rfingers 7.12502
rthumb 31.9856 -267.775
lclavicle -4.57205e-015 -5.24792e-014
lhumerus -45.1951 -16.2057 98.5097
lradius 50.8663
lwrist 7.31224
lhand -16.988 -6.39929
lfingers 7.12502
lthumb 9.24693 23.3779
rfemur -4.5182 21.0116 26.5689
rtibia 6.50938
rfoot -11.2221 -17.6756
rtoes -2.01389
lfemur 7.195 -39.4361 -14.7908
ltibia -3.9656
lfoot -21.8332 51.1173
ltoes 13.4316
214
root -0.531255 17.5415 7.60072 7.45659 -3.23046 -8.45284
lowerback 5.90025 -3.32242 1.47067
upperback -4.65885 -4.19723 1.77838
thorax -8.18289 -2.08392 1.59271
lowerneck -10.0237 -9.13136 -7.41229
upperneck 35.6656 -14.2061 5.40859
head 15.058 -6.54687 1.19502
rclavicle -6.19338e-014 2.38542e-014
rhumerus -68.331 23.648 -96.8558
rradius 109.248
rwrist -24.0775
rhand 5.66021 -66.2304
rfingers 7.12502
rthumb 30.9995 -266.368
lclavicle -6.19338e-014 2.38542e-014
lhumerus -45.3153 -17.0165 99.0474
lradius 52.5987
lwrist 8.10842
lhand -16.9396 -6.73768
lfingers 7.12502
lthumb 9.29362 23.0375
rfemur -4.45282 21.0124 26.5681
rtibia 6.54212
rfoot -11.3155 -18.0663
rtoes -1.87042
lfemur 6.80182 -38.8506 -14.5098
ltibia -3.83207
lfoot -20.8205 50.3208
ltoes 12.5433
215
root -0.531314 17.5408 7.60571 7.50248 -2.96818 -8.41341
lowerback 5.22208 -3.54534 1.34587
upperback -4.41723 -4.52069 1.88893
thorax -7.50509 -2.23954 1.75495
lowerneck -10.1963 -9.2147 -7.57205
upperneck 35.5555 -14.258 5.37317
head 15.0614 -6.58983 1.18716
rclavicle 3.33213e-014 1.66979e-014
rhumerus -69.4245 23.9981 -96.3325
rradius 114.464
rwrist -24.9628
rhand 4.56368 -66.6944
rfingers 7.12502
rthumb 29.9537 -265.71
lclavicle 3.33213e-014 1.66979e-014
lhumerus -44.935 -17.4535 99.2931
lradius 53.9542
lwrist 8.77182
lhand -17.1599 -7.23017
lfingers 7.12502
lthumb 9.08104 22.5543
rfemur -4.56943 21.0432 26.5329
rtibia 6.71971
rfoot -11.4534 -18.3329
rtoes -1.87291
lfemur 6.53427 -38.6097 -14.346
ltibia -3.7907
lfoot -20.3332 49.9421
ltoes 12.0839
216
root -0.535911 17.5541 7.6267 6.91014 -1.85216 -8.16981
lowerback 6.04909 -3.96083 1.50744
upperback -4.79103 -5.05281 1.69042
thorax -8.4165 -2.5052 1.6112
lowerneck -9.59158 -9.32893 -7.67097
upperneck 35.8934 -14.4484 5.21815
head 15.0981 -6.72599 1.13475
rclavicle -2.5519e-014 -2.38542e-015
rhumerus -71.851 23.4247 -96.3218
rradius 119.624
rwrist -25.3221
rhand 5.11186 -67.9593
rfingers 7.12502
rthumb 30.4767 -264.541
lclavicle -2.5519e-014 -2.38542e-015
lhumerus -45.9923 -17.9164 99.8322
lradius 55.1912
lwrist 9.35034
lhand -17.4913 -7.41582
lfingers 7.12502
lthumb 8.76122 22.3823
rfemur -3.45977 21.2477 26.7189
rtibia 6.31736
rfoot -11.7678 -19.6747
rtoes -1.07492
lfemur 6.94234 -38.5304 -14.7099
ltibia -3.82573
lfoot -18.8118 49.0347
ltoes 10.3428
217
root -0.537459 17.555 7.63334 6.75404 -1.37433 -8.16569
lowerback 6.00082 -4.22782 1.64233
upperback -4.81955 -5.40128 1.66484
thorax -8.43235 -2.68436 1.55444
lowerneck -9.48791 -9.39346 -7.65084
upperneck 35.9847 -14.4994 5.01106
head 15.0989 -6.77675 1.04217
rclavicle -3.47873e-016 -3.97569e-015
rhumerus -73.2092 23.093 -95.8431
rradius 124.254
rwrist -25.4283
rhand 5.19355 -69.0517
rfingers 7.12502
rthumb 30.5546 -263.463
lclavicle -3.47873e-016 -3.97569e-015
lhumerus -46.0022 -17.9927 99.9307
lradius 56.0501
lwrist 9.71452
lhand -17.748 -7.36384
lfingers 7.12502
lthumb 8.51354 22.4445
rfemur -3.25872 21.1561 26.8369
rtibia 6.39557
rfoot -12.0465 -20.0518
rtoes -0.650073
lfemur 7.11541 -38.7251 -14.7671
ltibia -3.94981
lfoot -18.4451 48.8639
ltoes 9.88197
218
root -0.530657 17.5462 7.62745 6.89482 -1.26675 -8.3069
lowerback 5.13953 -4.41654 1.75312
upperback -4.41624 -5.66328 1.79361
thorax -7.49204 -2.82529 1.55819
lowerneck -9.93429 -9.43389 -7.59717
upperneck 35.7894 -14.4511 4.83867
head 15.0773 -6.75688 0.948643
rclavicle -4.44781e-015 -2.38542e-015
rhumerus -73.4582 23.0221 -94.9793
rradius 128.153
rwrist -24.5726
rhand 5.08315 -68.5629
rfingers 7.12502
rthumb 30.4493 -263.932
lclavicle -4.44781e-015 -2.38542e-015
lhumerus -44.9035 -17.6816 99.613
lradius 56.5904
lwrist 9.69062
lhand -17.8934 -7.34656
lfingers 7.12502
lthumb 8.3732 22.4675
rfemur -3.72529 20.7576 26.8361
rtibia 6.81617
rfoot -12.2369 -19.7265
rtoes -0.647828
lfemur 6.97566 -39.103 -14.5875
ltibia -4.00533
lfoot -18.7381 49.1516
ltoes 10.2495
219
root -0.542689 17.5585 7.64103 6.31437 -0.593189 -8.35689
lowerback 6.24829 -4.66067 1.98398
upperback -4.85794 -5.94024 1.68247
thorax -8.65162 -2.96408 1.48495
lowerneck -9.37852 -9.51433 -7.77869
upperneck 36.2046 -14.6281 4.81186
head 15.1845 -6.87874 0.959717
rclavicle 2.77802e-014 1.03368e-014
rhumerus -75.681 22.1559 -95.1489
rradius 131.61
rwrist -22.1485
rhand 6.60766 -66.1984
rfingers 7.12502
rthumb 31.9022 -266.576
lclavicle 2.77802e-014 1.03368e-014
lhumerus -45.759 -17.3366 99.8805
lradius 57.137
lwrist 9.47889
lhand -18.0265 -7.35748
lfingers 7.12502
lthumb 8.24473 22.4616
rfemur -2.80112 20.974 27.3367
rtibia 6.67359
rfoot -12.5441 -20.6178
rtoes -0.037007
lfemur 7.73615 -39.3231 -14.8658
ltibia -4.2051
lfoot -17.9754 48.8657
ltoes 9.29765
220
root -0.548169 17.5641 7.64815 6.04302 -0.191845 -8.46024
lowerback 6.65927 -4.846 2.14563
upperback -5.02001 -6.16084 1.65107
thorax -9.09202 -3.07701 1.44724
lowerneck -9.15149 -9.56696 -7.9549
upperneck 36.326 -14.7963 5.03286
head 15.2511 -6.95517 1.05783
rclavicle -4.62174e-015 1.59028e-015
rhumerus -76.6989 21.4438 -94.6437
rradius 134.735
rwrist -22.1555
rhand 7.8776 -68.1367
rfingers 7.12502
rthumb 33.1106 -264.887
lclavicle -4.62174e-015 1.59028e-015
lhumerus -45.8821 -16.8044 99.858
lradius 57.4495
lwrist 9.39653
lhand -18.347 -7.24633
lfingers 7.12502
lthumb 7.93545 22.5847
rfemur -2.43303 20.9454 27.6587
rtibia 6.72536
rfoot -12.7182 -20.9861
rtoes 0.154005
lfemur 8.0899 -39.5379 -14.9224
ltibia -4.29439
lfoot -17.4595 48.7816
ltoes 8.53259
221
root -0.55157 17.5654 7.65037 5.9574 0.088659 -8.49342
lowerback 6.72093 -5.02594 2.13874
upperback -5.05819 -6.40194 1.64686
thorax -9.17063 -3.19314 1.49137
lowerneck -9.06886 -9.58316 -7.83433
upperneck 36.2433 -14.83 4.97732
head 15.1756 -6.96788 1.01584
rclavicle 1.2921e-015 -1.35174e-014
rhumerus -77.378 21.0038 -94.6021
rradius 136.678
rwrist -21.3823
rhand 4.98366 -63.2491
rfingers 7.12502
rthumb 30.3544 -269.228
lclavicle 1.2921e-015 -1.35174e-014
lhumerus -45.7366 -16.0971 99.652
lradius 57.6719
lwrist 9.46266
lhand -18.8422 -7.31017
lfingers 7.12502
lthumb 7.45751 22.5384
rfemur -2.3403 20.8482 27.7599
rtibia 6.76396
rfoot -12.7938 -21.1538
rtoes 0.299411
lfemur 8.10174 -39.6008 -14.8618
ltibia -4.30758
lfoot -17.0213 48.6477
ltoes 7.85218
222
root -0.554615 17.5669 7.64978 5.89437 0.327897 -8.43924
lowerback 6.78868 -5.19952 1.99488
upperback -5.09649 -6.65044 1.63027
thorax -9.23769 -3.30472 1.59901
lowerneck -9.01204 -9.573 -7.47843
upperneck 36.1326 -14.7463 4.60093
head 15.0213 -6.94038 0.827717
rclavicle -2.70844e-014 -1.03368e-014
rhumerus -77.5916 20.5906 -94.3294
rradius 137.518
rwrist -21.7587
rhand 4.09235 -62.2175
rfingers 7.12502
rthumb 29.5039 -89.8935
lclavicle -2.70844e-014 -1.03368e-014
lhumerus -45.6344 -15.3305 99.4579
lradius 57.8415
lwrist 9.74861
lhand -19.3337 -7.34047
lfingers 7.12502
lthumb 6.98307 22.5243
rfemur -2.26695 20.7697 27.7319
rtibia 6.75001
rfoot -12.8636 -21.2938
rtoes 0.55309
lfemur 8.00119 -39.5287 -14.8379
ltibia -4.24118
lfoot -16.618 48.4021
ltoes 7.33991
